<?xml version="1.0" encoding="UTF-8" standalone="no"?>
<svg
   xmlns:dc="http://purl.org/dc/elements/1.1/"
   xmlns:cc="http://creativecommons.org/ns#"
   xmlns:rdf="http://www.w3.org/1999/02/22-rdf-syntax-ns#"
   xmlns:svg="http://www.w3.org/2000/svg"
   xmlns="http://www.w3.org/2000/svg"
   xmlns:sodipodi="http://sodipodi.sourceforge.net/DTD/sodipodi-0.dtd"
   xmlns:inkscape="http://www.inkscape.org/namespaces/inkscape"
   fill="none"
   viewBox="0 0 36 36"
   id="svg2"
   version="1.1"
   inkscape:version="0.91 r13725"
   sodipodi:docname="favicon.svg">
  <metadata
     id="metadata19">
    <rdf:RDF>
      <cc:Work
         rdf:about="">
        <dc:format>image/svg+xml</dc:format>
        <dc:type
           rdf:resource="http://purl.org/dc/dcmitype/StillImage" />
      </cc:Work>
    </rdf:RDF>
  </metadata>
  <sodipodi:namedview
     pagecolor="#ffffff"
     bordercolor="#666666"
     borderopacity="1"
     objecttolerance="10"
     gridtolerance="10"
     guidetolerance="10"
     inkscape:pageopacity="0"
     inkscape:pageshadow="2"
     inkscape:window-width="1920"
     inkscape:window-height="1017"
     id="namedview17"
     showgrid="false"
     inkscape:zoom="3.2777778"
     inkscape:cx="57.776446"
     inkscape:cy="-4.0388511"
     inkscape:window-x="-8"
     inkscape:window-y="-8"
     inkscape:window-maximized="1"
     inkscape:current-layer="svg2" />
  <path
     fill="#000"
     d="M22.25 4h-8.5a1 1 0 0 0-.96.73l-5.54 19.4a.5.5 0 0 0 .62.62l5.05-1.44a2 2 0 0 0 1.38-1.4l3.22-11.66a.5.5 0 0 1 .96 0l3.22 11.67a2 2 0 0 0 1.38 1.39l5.05 1.44a.5.5 0 0 0 .62-.62l-5.54-19.4a1 1 0 0 0-.96-.73Z"
     id="path4" />
  <path
     fill="url(#gradient)"
     d="M18 28a7.63 7.63 0 0 1-5-2c-1.4 2.1-.35 4.35.6 5.55.14.17.41.07.47-.15.44-1.8 2.93-1.22 2.93.6 0 2.28.87 3.4 1.72 3.81.34.16.59-.2.49-.56-.31-1.05-.29-2.46 1.29-3.25 3-1.5 3.17-4.83 2.5-6-.67.67-2.6 2-5 2Z"
     id="path6" />
  <defs
     id="defs8">
    <linearGradient
       id="gradient"
       x1="16"
       x2="16"
       y1="32"
       y2="24"
       gradientUnits="userSpaceOnUse">
      <stop
         stop-color="#000"
         id="stop11" />
      <stop
         offset="1"
         stop-color="#000"
         stop-opacity="0"
         id="stop13" />
    </linearGradient>
  </defs>
  <style
     id="style15">
    @media (prefers-color-scheme:dark){:root{filter:invert(100%)}}
  </style>
  <path
     inkscape:connector-curvature="0"
     id="path4935"
     d="m 13.377756,35.578102 c -0.244972,-0.234368 -0.284682,-0.528874 -0.112749,-0.83624 0.08084,-0.144486 0.225496,-0.198407 0.532315,-0.198407 0.439987,0 0.643308,0.18619 0.643308,0.589105 0,0.511906 -0.690828,0.801487 -1.062879,0.445542 z m 1.920622,-0.0089 c -0.236406,-0.226171 -0.273552,-0.523262 -0.103434,-0.82735 0.08084,-0.144486 0.225495,-0.19841 0.532316,-0.19841 0.306833,0 0.451492,0.05392 0.532326,0.19841 0.183135,0.327387 0.127117,0.595166 -0.171515,0.819906 -0.353162,0.265764 -0.518042,0.26732 -0.789681,0.0075 z m 1.997991,-0.0075 c -0.329464,-0.24794 -0.365995,-0.606507 -0.08643,-0.848552 0.244686,-0.211855 0.805629,-0.220742 0.983592,-0.01558 0.212158,0.244563 0.159758,0.685173 -0.105961,0.891024 -0.307826,0.238474 -0.444768,0.233819 -0.791204,-0.02689 z M 9.079744,35.492716 C 8.4500581,35.404448 8.0935474,35.217677 7.6462281,34.741696 l -0.4755424,-0.506029 -0.9025972,0 -0.9025966,0 -0.4882628,0.447582 C 4.1068388,35.389509 3.0957456,35.62925 2.1907914,35.320285 1.2471269,34.998105 0.54668553,34.162784 0.43003192,33.220473 l -0.0647901,-0.523389 0.64452758,0 0.6445434,0 0.065995,0.394875 c 0.1273472,0.761898 0.8340336,1.240899 1.622081,1.09946 0.4495838,-0.08069 0.9834878,-0.640851 1.0800266,-1.133125 l 0.070828,-0.36121 1.3305871,0 c 1.3073942,0 1.332681,-0.0043 1.4500764,-0.250883 l 0.1194783,-0.250881 1.9125681,-0.0061 1.9125747,-0.0061 0.190417,0.278464 c 0.134104,0.196108 0.190328,0.479578 0.19012,0.958475 0,0.584479 -0.04439,0.740878 -0.314127,1.113262 -0.495489,0.684029 -1.390696,1.073464 -2.205199,0.959297 z m 0.938165,-1.625646 c 0.313989,-0.336199 0.306031,-0.70708 -0.021951,-1.020841 -0.5294334,-0.506516 -1.4563659,-0.18039 -1.4488985,0.509779 0.00868,0.801496 0.9077871,1.11391 1.4708345,0.511062 z m 22.205065,1.398287 c -0.215089,-0.111758 -0.557453,-0.389159 -0.760808,-0.616444 l -0.369731,-0.413246 -3.804054,0 -3.804067,0 -0.250279,0.25487 c -0.711304,0.724377 -2.228102,0.267321 -2.423739,-0.730347 -0.277825,-1.416854 1.517382,-2.350227 2.532343,-1.316626 l 0.248896,0.253464 3.720921,0 3.720931,0 0.134758,-0.311251 c 0.129989,-0.300251 1.004519,-1.124813 1.192961,-1.124813 0.05068,0 0.09213,-1.015503 0.09213,-2.256671 l 0,-2.256672 0.80765,0 0.807639,0 -0.01131,2.22853 c -0.0072,1.416323 0.02805,2.241093 0.09676,2.263003 0.05946,0.01895 0.302911,0.169481 0.541021,0.334495 1.256317,0.870674 1.193474,2.728835 -0.120421,3.560691 -0.592119,0.374879 -1.757275,0.439797 -2.351554,0.131017 z m 1.682569,-1.384044 c 0.287551,-0.275101 0.327374,-0.526957 0.144137,-0.911708 -0.127055,-0.266759 -0.504994,-0.477729 -0.855845,-0.477729 -0.337709,0 -0.740608,0.45424 -0.740608,0.834977 0,0.734881 0.903283,1.07973 1.452316,0.55446 z M 13.395265,33.771879 c -0.24017,-0.162517 -0.323038,-0.593868 -0.159187,-0.828637 0.175245,-0.251085 0.551346,-0.360942 0.802494,-0.234405 0.300252,0.151274 0.398323,0.288043 0.400425,0.55846 0.004,0.495865 -0.614691,0.794896 -1.043732,0.504582 z m 1.926969,-0.0034 c -0.256568,-0.171934 -0.310927,-0.54457 -0.127305,-0.872826 0.146069,-0.261099 0.755193,-0.267701 0.998186,-0.01083 0.307242,0.324799 0.217544,0.706277 -0.21757,0.925395 -0.304418,0.153292 -0.368337,0.149211 -0.653316,-0.04174 z m 2.1205,0.08747 c -0.447047,-0.150002 -0.563262,-0.722398 -0.214436,-1.056125 0.266162,-0.254631 0.547469,-0.260997 0.859274,-0.01944 0.556505,0.431124 0.03365,1.303228 -0.644838,1.075569 z M 2.5472476,33.24745 C 2.3335202,32.987496 2.3250238,32.85821 2.3250238,29.86244 l 0,-3.114735 0.8099378,0 0.8099251,0 -0.032594,3.120467 -0.032608,3.120467 -0.2599305,0.264541 c -0.345133,0.351251 -0.7809108,0.348921 -1.0725078,-0.0055 z M 13.265013,31.883251 c -0.269536,-0.481833 0.02709,-1.032503 0.556172,-1.032503 0.270407,0 0.61945,0.366741 0.61945,0.650844 0,0.517999 -0.93039,0.820042 -1.175622,0.381659 z m 1.987423,0.03723 c -0.386282,-0.369555 -0.05989,-1.06972 0.498669,-1.06972 0.270407,0 0.61945,0.366741 0.61945,0.650844 0,0.494563 -0.746648,0.774275 -1.118119,0.418876 z M 0.57278457,31.152827 C 0.26946337,30.924564 0.21109118,30.596773 0.42573111,30.32715 0.81316597,29.840486 1.5744997,30.078767 1.5744997,30.686687 c 0,0.5667 -0.5363984,0.81631 -1.00171513,0.46614 z M 5.648776,20.385828 l 0,-10.8752179 2.1151012,0.027827 2.1150908,0.027827 1.109243,1.7437913 c 2.971746,4.671767 7.150641,11.129373 7.201513,11.128423 0.03143,-4.95e-4 0.520215,-0.727594 1.086177,-1.615571 0.56596,-0.887976 2.158799,-3.368557 3.539638,-5.512389 1.380841,-2.143839 2.775325,-4.32355 3.098863,-4.843799 l 0.588243,-0.9459201 2.117548,-0.00276 2.11755,-0.00276 0,10.8730568 0,10.873053 -2.679544,0 -2.679554,0 -0.02769,-5.736071 -0.02769,-5.73607 -3.484588,5.526429 c -1.916515,3.039532 -3.518137,5.584808 -3.55916,5.656165 -0.041,0.07136 -0.09334,0.108005 -0.116249,0.08143 -0.05604,-0.06499 -2.56354,-4.029813 -5.063424,-8.006223 l -2.036545,-3.239412 -0.02769,5.726879 -0.0277,5.726876 -2.6795525,0 -2.679552,0 0,-10.875221 z M 0.52376627,28.77871 c -0.16585208,-0.158676 -0.16585208,-0.6209 0,-0.779576 0.15074438,-0.144214 0.60978353,-0.159734 0.82736493,-0.02798 0.083544,0.05058 0.1518894,0.238582 0.1518894,0.417757 0,0.179182 -0.068346,0.367169 -0.1518894,0.417759 -0.2175814,0.131762 -0.67662055,0.116252 -0.82736493,-0.02797 z m -0.0689621,-1.848679 c -0.3428686,-0.468314 -0.074212,-1.002935 0.50398243,-1.002935 0.3656275,0 0.6157125,0.250597 0.6157125,0.616969 0,0.551517 -0.79729052,0.826349 -1.11969493,0.385966 z m 0.0743254,-1.888407 c -0.0900175,-0.03682 -0.13402606,-0.304575 -0.13402606,-0.81558 l 0,-0.760771 1.76909729,0 1.7690874,0 0,0.757358 c 0,0.639153 -0.029698,0.764788 -0.1903479,0.80498 -0.2708076,0.06774 -3.05273782,0.07987 -3.21381073,0.01402 z m 31.89104443,-0.001 c -0.04079,-0.03912 -0.07416,-0.409529 -0.07416,-0.823251 l 0,-0.752224 1.720002,0 1.71999,0 -0.03133,0.794959 -0.03131,0.794965 -1.614524,0.0282 c -0.88798,0.0155 -1.647895,-0.0037 -1.688677,-0.04275 z m 0.08667,-3.346974 c -0.496723,-0.265846 -0.911355,-0.948389 -0.911355,-1.500234 0,-0.50499 0.360891,-1.148308 0.805807,-1.436432 0.455381,-0.294898 1.305073,-0.398661 1.766676,-0.215733 0.775514,0.307326 1.288684,1.28525 1.074234,2.047155 -0.322657,1.146385 -1.653633,1.68418 -2.735362,1.105244 z m 1.447435,-0.998007 c 0.308525,-0.295162 0.277577,-0.758205 -0.06807,-1.018316 -0.345133,-0.259724 -0.589154,-0.268893 -0.880443,-0.03304 -0.368829,0.298583 -0.402475,0.691422 -0.0852,0.994955 0.328184,0.313977 0.740964,0.33652 1.033705,0.05644 z m -33.55917027,0.205154 0,-0.820607 1.76909727,0 1.7690874,0 0,0.820607 0,0.820606 -1.7690874,0 -1.76909727,0 0,-0.820606 z M 17.324764,18.439853 c -0.370774,-0.187484 -0.739775,-0.595444 -0.739775,-0.817892 0,-0.134639 3.178017,-0.146227 3.264796,-0.01183 0.08571,0.132656 -0.595957,0.799203 -0.948434,0.927414 -0.447477,0.162762 -1.147348,0.119426 -1.576587,-0.09764 z m -16.9296607,-0.821548 0,-0.820606 0.9625694,0 0.9625587,0 0.02921,-6.304808 C 2.3754507,4.8770718 2.3973592,4.1701744 2.5500041,4.0241847 2.8058872,3.7794545 3.3690121,3.8005643 3.6457539,4.0652505 l 0.2339327,0.2237698 0.029655,7.0749337 0.029642,7.074942 -1.7719362,0 -1.77194585,0 0,-0.820605 z m 31.9728167,-1.205271 0.0317,-0.692387 1.688677,-0.02824 1.688679,-0.02824 0,0.720644 0,0.720635 -1.720379,0 -1.720381,0 0.0317,-0.692392 z m -16.426239,-0.435946 0,-0.615455 2.251576,0 2.251576,0 0,0.615455 0,0.615452 -2.251576,0 -2.251576,0 0,-0.615452 z M 0.4653367,14.661163 c -0.23859002,-0.252222 -0.22374618,-0.58873 0.0369853,-0.83817 0.42225741,-0.403983 1.07217653,-0.13927 1.07217653,0.4367 0,0.538536 -0.72967806,0.802651 -1.10916266,0.40147 z M 32.427722,10.885129 32.399618,7.0151541 31.9343,6.7519819 C 31.316542,6.4025858 30.881872,5.8195431 30.735177,5.1435159 l -0.119856,-0.552362 -0.624986,0 c -0.571303,0 -0.657202,0.030816 -1.000242,0.3590146 -0.497079,0.4755661 -1.020005,0.4965127 -1.477136,0.05919 -0.676771,-0.6474779 -0.218712,-1.7516863 0.726669,-1.7516863 0.47599,0 0.860568,0.2206951 1.001178,0.5745239 0.09023,0.226994 0.155334,0.2460878 0.839354,0.2460878 0.703555,0 0.745036,-0.013303 0.809513,-0.2590251 0.03736,-0.1424669 0.247661,-0.4497186 0.467299,-0.6827808 1.521806,-1.6148126 4.318574,-0.6406291 4.310442,1.5014376 -0.0037,0.9563039 -0.477648,1.7595734 -1.269527,2.1513393 l -0.336395,0.1664272 -0.006,1.7155074 c -0.0034,0.9435365 -0.03026,2.6848578 -0.05975,3.8696098 l -0.05364,2.154094 -0.743091,0.03014 -0.743079,0.03014 -0.02809,-3.869982 z M 33.74199,5.5645627 c 0.972611,-0.4811789 0.570934,-1.8965893 -0.53824,-1.8965893 -0.840554,0 -1.334063,0.8170278 -0.922553,1.5273461 0.285011,0.4919444 0.89905,0.6471518 1.460793,0.3692432 z m -17.800309,8.1558543 0,-0.615453 2.251576,0 2.251576,0 0,0.615453 0,0.615454 -2.251576,0 -2.251576,0 0,-0.615454 z m 18.798777,0.244615 c -0.164537,-0.240244 -0.167247,-0.296478 -0.02593,-0.538523 0.304361,-0.521301 1.169664,-0.34816 1.169664,0.234048 0,0.559325 -0.819739,0.777558 -1.143739,0.304475 z M 0.45638071,12.738619 c -0.35043881,-0.335272 -0.040817,-1.069722 0.45095319,-1.069722 0.3413257,0 0.6671653,0.299847 0.6671653,0.613947 0,0.375219 -0.2520625,0.616961 -0.64330739,0.616961 -0.16848148,0 -0.3821521,-0.07253 -0.4748111,-0.161186 z M 34.812016,12.0792 c -0.117932,-0.112827 -0.214436,-0.29747 -0.214436,-0.410303 0,-0.278383 0.372594,-0.615453 0.680305,-0.615453 0.30634,0 0.60631,0.295802 0.60631,0.597887 0,0.279152 -0.359612,0.633022 -0.643308,0.633022 -0.117933,0 -0.310924,-0.09232 -0.428871,-0.205153 z M 17.228298,10.745712 c 0,-0.733419 0.03985,-1.3334839 0.08854,-1.3334839 0.04868,0 0.19344,0.1068342 0.321654,0.2374062 0.209334,0.2131668 0.233125,0.3492886 0.233125,1.3334817 l 0,1.096084 -0.321654,0 -0.321653,0 0,-1.333488 z m 1.286612,0.212135 0,-1.1213482 0.321655,-0.2191201 0.321651,-0.21912 0,1.3404683 0,1.340473 -0.321651,0 -0.321655,0 0,-1.121353 z m -2.896984,0.629531 c -2.476702,-1.504131 -2.395183,-5.439521 0.145221,-7.0103763 0.911689,-0.5637385 1.609982,-0.7376527 2.741228,-0.6827131 1.155931,0.056134 1.962266,0.3975619 2.77584,1.1753569 1.671558,1.5980402 1.778259,4.2345298 0.239011,5.9051365 -0.2218,0.240719 -0.598361,0.542255 -0.83681,0.670067 l -0.43354,0.232397 -0.03951,-2.1813404 c -0.04547,-2.5114122 -0.111734,-2.7436735 -0.930695,-3.2626469 -0.669977,-0.424563 -1.481252,-0.42814 -2.171129,-0.00957 -0.814581,0.4942185 -0.886367,0.7416507 -0.950093,3.2744297 l -0.05494,2.1835539 -0.48459,-0.294294 z M 15.412649,8.5880049 c 0.396221,-0.2028704 0.185352,-0.7144178 -0.29449,-0.7144178 -0.337883,0 -0.473085,0.4849188 -0.190362,0.6826986 0.236428,0.1653897 0.225219,0.1646569 0.484852,0.031704 z m 6.043093,-0.054985 c 0.32814,-0.3139238 0.136153,-0.69242 -0.325619,-0.6419934 -0.379217,0.041398 -0.498268,0.4553112 -0.192502,0.6692112 0.246161,0.1722039 0.313373,0.1686684 0.518121,-0.027221 z M 16.200961,6.5804309 c 0.09851,-0.036174 0.169592,-0.1820739 0.169592,-0.3480402 0,-0.4288464 -0.542436,-0.5771159 -0.750524,-0.2051505 -0.218793,0.3911201 0.126568,0.7199981 0.580932,0.5531907 z m 4.565523,-0.1428884 c 0.08154,-0.145759 0.08154,-0.2645432 0,-0.4103023 -0.189743,-0.339195 -0.750523,-0.2313586 -0.750523,0.1443199 0,0.4558614 0.537711,0.6464191 0.750523,0.2659824 z m -2.21,-1.0514072 C 18.79044,5.0307247 18.263247,4.6305021 17.920072,4.902994 c -0.212218,0.168491 -0.195964,0.4758513 0.03196,0.6045255 0.248882,0.1405187 0.459969,0.098133 0.604458,-0.1213842 z M 0.4653367,10.763298 C -0.00713231,10.263832 0.58472273,9.5507034 1.2280953,9.8442504 1.5968345,10.01249 1.7028387,10.607419 1.4016217,10.818136 1.1294674,11.00853 0.67196154,10.981732 0.4653367,10.76329 Z M 0.50232197,8.8993638 C 0.05966779,8.4758787 0.36144592,7.8736073 1.0162788,7.8736073 c 0.5602303,0 0.7867428,0.758423 0.3199262,1.0712275 C 1.0154886,9.1597534 0.75992833,9.1458177 0.5023221,8.8993562 Z M 6.5065175,8.694212 C 6.3635718,8.3640321 5.7253408,7.7710314 5.5129414,7.7710314 c -0.070607,0 0.05163,-0.1170204 0.2716421,-0.2600496 C 6.0045872,7.3679511 6.2951008,7.0429096 6.4301529,6.7886557 l 0.2455797,-0.462283 0.1915035,0.4152646 c 0.10532,0.2283921 0.3580436,0.536791 0.5616058,0.6853326 L 7.7989407,7.6970393 7.434776,7.933787 C 7.2344764,8.063995 6.9737574,8.357807 6.8553904,8.5867018 L 6.6401638,9.0028752 6.5065175,8.694212 Z M 29.07587,8.5527085 C 28.957923,8.320407 28.70298,8.0299554 28.509324,7.9072604 L 28.157204,7.6841827 28.497213,7.4968094 C 28.704879,7.3823702 28.931072,7.1177703 29.078352,6.8169802 L 29.319491,6.3245207 29.5576,6.7950908 c 0.134036,0.2648896 0.408001,0.5810129 0.626804,0.7232553 0.213773,0.1389715 0.332943,0.2526853 0.264801,0.2526853 -0.20335,0 -0.77853,0.5135569 -0.975366,0.8708816 L 29.290305,8.9750808 29.07587,8.5527085 Z M 10.216939,7.4082699 c -0.09473,-0.09063 -0.172234,-0.204336 -0.172234,-0.2526991 0,-0.048324 0.07751,-0.1620693 0.172234,-0.2526914 0.256841,-0.2457212 2.165067,-0.1859216 2.335462,0.073191 0.08591,0.1306562 0.08591,0.2283644 0,0.3590209 -0.170395,0.2591065 -2.078621,0.3189058 -2.335462,0.073191 z m 13.683781,0.037873 c -0.198528,-0.1899406 -0.159173,-0.4746296 0.08276,-0.5984979 0.121894,-0.062376 0.639051,-0.097265 1.194844,-0.080545 0.794991,0.023897 1.002232,0.063395 1.097981,0.2089933 0.08588,0.1306362 0.08587,0.2283783 -4.8e-5,0.3590208 -0.09714,0.1476941 -0.306385,0.1846385 -1.180733,0.208477 -0.734893,0.02002 -1.103412,-0.01008 -1.194802,-0.097455 z M 0.46533587,6.9680212 C 0.07752134,6.5580512 0.37706876,5.9246977 0.9587858,5.9246977 c 0.3656276,0 0.6157128,0.2505952 0.6157128,0.6169677 0,0.5277833 -0.74303357,0.8134102 -1.10916273,0.4263558 z M 12.14066,4.9507591 C 11.553827,4.5855269 11.035086,4.2207088 10.987898,4.1400438 c -0.116641,-0.1993953 -10e-4,-0.4512524 0.24073,-0.5246818 0.231293,-0.070225 2.317884,1.1760899 2.427799,1.4501227 0.07969,0.1986757 -0.08639,0.4897053 -0.299455,0.5247634 -0.08214,0.01351 -0.629479,-0.2742569 -1.216312,-0.639489 z M 22.830427,5.549033 c -0.0737,-0.028443 -0.134023,-0.1763305 -0.134023,-0.3286057 0,-0.2358588 0.146913,-0.3692914 0.991767,-0.9007743 1.2767,-0.803147 1.224879,-0.7786366 1.481436,-0.7007343 0.162114,0.049211 0.21105,0.1383604 0.186679,0.3399954 -0.02644,0.2187267 -0.247076,0.4100652 -1.105217,0.9585174 -1.07194,0.6850753 -1.169619,0.7285028 -1.420642,0.6316015 z M 0.39510258,4.6607685 C 0.39510258,3.6889608 1.0481186,2.645869 1.924193,2.2182783 2.2784859,2.0453551 2.5074021,2.013582 3.1724708,2.045036 4.1282937,2.0902418 4.6843753,2.3774294 5.1179227,3.0497844 l 0.2628126,0.4075669 1.8495095,0.00272 1.8494977,0.00272 0,0.8206116 0,0.8206048 -2.3051758,0 -2.3051879,0 -0.00107,-0.487234 c 0,-0.3042344 -0.0766,-0.597388 -0.2027808,-0.7804794 C 3.426204,2.6181887 1.6814526,3.1380583 1.6814526,4.6062972 l 0,0.4977076 -0.6433053,0 -0.64330445,0 0,-0.4433177 z M 15.005257,3.4372325 c -0.138281,-0.1689456 -1.100712,-1.8757448 -1.100712,-1.952025 0,-0.1750749 0.34758,-0.3657955 0.541555,-0.2971515 0.308558,0.1092075 1.307761,1.8517164 1.230552,2.1459901 -0.06777,0.2583259 -0.491157,0.3233929 -0.671395,0.1031861 z M 20.70946,3.3324783 c -0.07233,-0.2757093 0.92276,-2.0678977 1.205883,-2.1718445 0.105116,-0.038555 0.259887,0.014254 0.380861,0.1299843 0.200265,0.1915894 0.19783,0.2063051 -0.139938,0.8464525 -0.597584,1.13254 -0.829755,1.4283749 -1.121036,1.4283749 -0.185775,0 -0.282872,-0.069437 -0.32577,-0.2329672 z M 17.875377,2.649005 c -0.06104,-0.1091194 -0.110999,-0.6199065 -0.110999,-1.1350787 0,-0.99468888 0.104472,-1.333483 0.411203,-1.333483 0.374684,0 0.446541,0.21457941 0.446541,1.333483 0,0.7089135 -0.04477,1.130144 -0.128659,1.2104018 -0.193186,0.1848219 -0.492994,0.1482906 -0.618088,-0.075323 z"
     style="fill:#021d30;fill-opacity:1" />
</svg>
