<?xml version="1.0" encoding="UTF-8" standalone="no"?>
<svg
   xmlns:dc="http://purl.org/dc/elements/1.1/"
   xmlns:cc="http://creativecommons.org/ns#"
   xmlns:rdf="http://www.w3.org/1999/02/22-rdf-syntax-ns#"
   xmlns:svg="http://www.w3.org/2000/svg"
   xmlns="http://www.w3.org/2000/svg"
   xmlns:sodipodi="http://sodipodi.sourceforge.net/DTD/sodipodi-0.dtd"
   xmlns:inkscape="http://www.inkscape.org/namespaces/inkscape"
   fill="none"
   viewBox="0 0 36 36"
   id="svg2"
   version="1.1"
   inkscape:version="0.91 r13725"
   sodipodi:docname="favicon.svg">
  <metadata
     id="metadata19">
    <rdf:RDF>
      <cc:Work
         rdf:about="">
        <dc:format>image/svg+xml</dc:format>
        <dc:type
           rdf:resource="http://purl.org/dc/dcmitype/StillImage" />
      </cc:Work>
    </rdf:RDF>
  </metadata>
  <sodipodi:namedview
     pagecolor="#ffffff"
     bordercolor="#666666"
     borderopacity="1"
     objecttolerance="10"
     gridtolerance="10"
     guidetolerance="10"
     inkscape:pageopacity="0"
     inkscape:pageshadow="2"
     inkscape:window-width="1136"
     inkscape:window-height="569"
     id="namedview17"
     showgrid="false"
     inkscape:zoom="3.2777778"
     inkscape:cx="1.4883108"
     inkscape:cy="-4.0388511"
     inkscape:window-x="680"
     inkscape:window-y="373"
     inkscape:window-maximized="0"
     inkscape:current-layer="svg2" />
  <path
     fill="#000"
     d="M22.25 4h-8.5a1 1 0 0 0-.96.73l-5.54 19.4a.5.5 0 0 0 .62.62l5.05-1.44a2 2 0 0 0 1.38-1.4l3.22-11.66a.5.5 0 0 1 .96 0l3.22 11.67a2 2 0 0 0 1.38 1.39l5.05 1.44a.5.5 0 0 0 .62-.62l-5.54-19.4a1 1 0 0 0-.96-.73Z"
     id="path4" />
  <path
     fill="url(#gradient)"
     d="M18 28a7.63 7.63 0 0 1-5-2c-1.4 2.1-.35 4.35.6 5.55.14.17.41.07.47-.15.44-1.8 2.93-1.22 2.93.6 0 2.28.87 3.4 1.72 3.81.34.16.59-.2.49-.56-.31-1.05-.29-2.46 1.29-3.25 3-1.5 3.17-4.83 2.5-6-.67.67-2.6 2-5 2Z"
     id="path6" />
  <defs
     id="defs8">
    <linearGradient
       id="gradient"
       x1="16"
       x2="16"
       y1="32"
       y2="24"
       gradientUnits="userSpaceOnUse">
      <stop
         stop-color="#000"
         id="stop11" />
      <stop
         offset="1"
         stop-color="#000"
         stop-opacity="0"
         id="stop13" />
    </linearGradient>
  </defs>
  <style
     id="style15">
    @media (prefers-color-scheme:dark){:root{filter:invert(100%)}}
  </style>
  <text
     xml:space="preserve"
     style="font-style:normal;font-weight:normal;font-size:43.55363083px;line-height:125%;font-family:sans-serif;letter-spacing:0px;word-spacing:0px;fill:#b4005c;fill-opacity:1;stroke:none;stroke-width:1px;stroke-linecap:butt;stroke-linejoin:miter;stroke-opacity:1"
     x="-2.0296366"
     y="31.98299"
     id="text4148"
     sodipodi:linespacing="125%"
     transform="scale(0.93601017,1.0683645)"><tspan
       sodipodi:role="line"
       id="tspan4150"
       x="-2.0296366"
       y="31.98299">m</tspan></text>
</svg>
